<?xml version="1.0" encoding="iso-8859-1"?>
<!-- Generator: Adobe Illustrator 16.0.0, SVG Export Plug-In . SVG Version: 6.00 Build 0)  -->
<!DOCTYPE svg PUBLIC "-//W3C//DTD SVG 1.1//EN" "http://www.w3.org/Graphics/SVG/1.1/DTD/svg11.dtd">
<svg version="1.1" id="Capa_1" xmlns="http://www.w3.org/2000/svg" xmlns:xlink="http://www.w3.org/1999/xlink" x="0px" y="0px"
	 width="50px" height="50px" viewBox="0 0 235.503 235.503" style="enable-background:new 0 0 235.503 235.503;"
	 xml:space="preserve">
<g>
	<g>
		<path d="M114.797,122.922c-17.909,27.318-28.168,67.052-28.168,109.042c0,1.951,1.591,3.539,3.539,3.539h55.179
			c1.963,0,3.534-1.588,3.534-3.539c0-41.966-10.287-81.703-28.181-109.042C119.396,120.922,116.116,120.922,114.797,122.922z
			 M93.726,228.445c0.509-36.952,9.169-71.737,24.028-96.884c14.872,25.171,23.52,59.947,24.037,96.884H93.726z"/>
		<path d="M117.754,76.864c0.817,0,1.627-0.276,2.286-0.817c11.115-9.379,17.495-23.095,17.495-37.609
			c0-14.509-6.372-28.225-17.495-37.598c-1.32-1.114-3.252-1.13-4.57,0.016c-11.116,9.384-17.498,23.087-17.498,37.582
			c0,14.5,6.375,28.216,17.498,37.58C116.129,76.58,116.939,76.864,117.754,76.864z M117.754,8.315
			c8.087,7.911,12.695,18.721,12.695,30.114c0,11.407-4.608,22.217-12.695,30.128c-8.091-7.927-12.695-18.737-12.695-30.128
			C105.059,27.056,109.664,16.226,117.754,8.315z"/>
		<path d="M214.366,95.17c-9.382-11.123-23.091-17.497-37.609-17.497c-14.476,0-28.181,6.374-37.582,17.497
			c-1.118,1.312-1.118,3.252,0,4.562c9.401,11.125,23.091,17.499,37.582,17.499c14.551,0,28.256-6.374,37.625-17.499
			C215.488,98.422,215.488,96.483,214.366,95.17z M176.756,110.144c-11.377,0-22.186-4.604-30.101-12.695
			c7.927-8.097,18.739-12.696,30.101-12.696c11.408,0,22.217,4.599,30.144,12.696C198.989,105.54,188.165,110.144,176.756,110.144z"
			/>
		<path d="M96.347,99.733c1.108-1.311,1.108-3.25-0.016-4.562c-9.364-11.123-23.087-17.497-37.58-17.497
			c-14.505,0-28.229,6.374-37.596,17.497c-1.146,1.312-1.146,3.252-0.016,4.562c9.357,11.125,23.079,17.499,37.612,17.499
			C73.26,117.223,86.981,110.857,96.347,99.733z M58.751,84.745c11.377,0,22.201,4.601,30.128,12.695
			c-7.911,8.093-18.721,12.696-30.128,12.696c-11.389,0-22.233-4.603-30.144-12.696C36.534,89.346,47.362,84.745,58.751,84.745z"/>
		<path d="M134.53,83.922c1.379,0.126,2.761,0.164,4.155,0.164c13.157,0,25.5-5.102,34.789-14.391
			c10.259-10.257,15.44-24.443,14.214-38.944c-0.152-1.733-1.503-3.11-3.233-3.236c-14.56-1.311-28.674,3.958-38.933,14.226
			c-10.287,10.253-15.469,24.439-14.227,38.957C131.432,82.423,132.798,83.779,134.53,83.922z M150.523,46.759
			c7.927-7.947,18.475-12.335,29.728-12.335c0.16,0,0.337,0,0.529,0c0.148,11.331-4.248,22.231-12.319,30.282
			c-7.95,7.942-18.506,12.314-29.775,12.314c-0.168,0-0.324,0-0.492-0.014C138.056,65.686,142.449,54.79,150.523,46.759z"/>
		<path d="M104.228,114.214c-0.148-1.724-1.499-3.088-3.23-3.214c-14.307-1.212-28.673,3.909-38.95,14.202
			c-10.273,10.271-15.455,24.469-14.225,38.944c0.148,1.723,1.503,3.105,3.234,3.218c1.408,0.132,2.779,0.168,4.218,0.168
			c13.124,0,25.451-5.089,34.729-14.374C100.272,142.895,105.462,128.704,104.228,114.214z M54.742,160.468
			c-0.142-11.301,4.262-22.205,12.323-30.269c7.931-7.942,18.488-12.311,29.731-12.311c0.18,0,0.353,0,0.517,0
			c0.142,11.329-4.262,22.221-12.309,30.272C76.939,156.235,65.746,160.563,54.742,160.468z"/>
		<path d="M134.53,111c-1.731,0.14-3.098,1.49-3.234,3.214c-1.242,14.482,3.939,28.681,14.211,38.944
			c9.277,9.285,21.604,14.374,34.744,14.374c0.016,0,0.016,0,0.016,0c1.403,0,2.777-0.052,4.188-0.168
			c1.73-0.145,3.102-1.495,3.233-3.218c1.227-14.476-3.955-28.673-14.23-38.944C163.219,114.923,149.057,109.711,134.53,111z
			 M150.507,148.161c-8.067-8.052-12.451-18.968-12.314-30.272c0.184,0,0.353,0,0.536,0c11.241,0,21.781,4.376,29.716,12.311
			c8.059,8.063,12.483,18.968,12.335,30.269C169.603,160.636,158.546,156.235,150.507,148.161z"/>
		<path d="M96.826,84.094c1.398,0,2.779-0.054,4.152-0.172c1.737-0.143,3.102-1.491,3.236-3.216
			c1.24-14.509-3.941-28.703-14.21-38.95c-10.257-10.277-24.43-15.535-38.946-14.224c-1.731,0.142-3.108,1.502-3.234,3.236
			c-1.23,14.493,3.952,28.687,14.208,38.944C71.329,78.984,83.686,84.094,96.826,84.094z M55.259,34.416
			c11.259,0,21.814,4.396,29.745,12.335c8.061,8.045,12.451,18.929,12.309,30.256c-0.165,0.014-0.323,0.014-0.487,0.014
			c-11.272,0-21.83-4.388-29.775-12.314C58.99,56.655,54.6,45.755,54.742,34.424C54.922,34.416,55.094,34.416,55.259,34.416z"/>
	</g>
</g>
<g>
</g>
<g>
</g>
<g>
</g>
<g>
</g>
<g>
</g>
<g>
</g>
<g>
</g>
<g>
</g>
<g>
</g>
<g>
</g>
<g>
</g>
<g>
</g>
<g>
</g>
<g>
</g>
<g>
</g>
</svg>
